<?xml version="1.0" encoding="utf-8"?>
<!-- Generator: Adobe Illustrator 24.0.1, SVG Export Plug-In . SVG Version: 6.00 Build 0)  -->
<svg version="1.1" id="图层_1" xmlns="http://www.w3.org/2000/svg" xmlns:xlink="http://www.w3.org/1999/xlink" x="0px" y="0px"
	 viewBox="0 0 371 200" style="enable-background:new 0 0 371 200;" xml:space="preserve">
<style type="text/css">
	.st0{fill:url(#路径_5_);}
	.st1{fill:url(#路径_6_);}
	.st2{fill:url(#路径_7_);}
	.st3{fill:url(#形状结合_1_);}
	.st4{fill:url(#路径_8_);}
	.st5{fill:url(#路径_9_);}
	.st6{fill:url(#路径-87_1_);}
	.st7{fill:url(#路径-87备份_1_);}
	.st8{fill:#E4E2E2;}
	.st9{fill:url(#路径-15_1_);}
	.st10{fill:url(#路径-15备份_1_);}
	.st11{fill:url(#路径-65_1_);}
	.st12{fill:url(#路径-88_1_);}
	.st13{fill:url(#形状_2_);}
	.st14{fill:#FFFFFF;}
</style>
<title>编组 5</title>
<g id="页面-1">
	<g id="空状态图标备份" transform="translate(-954.000000, -508.000000)">
		<g id="编组-5" transform="translate(954.000000, 508.000000)">
			<g id="编组-2备份-5">
				
					<linearGradient id="路径_5_" gradientUnits="userSpaceOnUse" x1="-110.7625" y1="517.8237" x2="-109.6036" y2="514.9641" gradientTransform="matrix(63.9295 0 0 -65.4068 7106.8784 33845.8086)">
					<stop  offset="0" style="stop-color:#D2D2D2"/>
					<stop  offset="1" style="stop-color:#D2D2D2;stop-opacity:0"/>
				</linearGradient>
				<path id="路径" class="st0" d="M73.3,159.6c-7.9-3.6-16.5-13.2-14.1-22.2c1.2-0.3,2.5,0.2,3.2,1.2c0,0,13.7,21.4,9.9,1.7
					c-1.8-9.3-4.9-18.2-5.2-27.8c-0.4-17.4,15.6-22.2,20.2-3c0.6,2.5,2.9,23.2,8.2,20.9c0.7-0.4,1.2-0.9,1.6-1.6
					c2.7-4.4,3.5-10.9,8.4-12.3c4.3-1.4,8.6,2.4,10.9,6.2c4.7,7.9,11,27.4,1.4,34C108,163.2,83.7,164.3,73.3,159.6L73.3,159.6z"/>
				
					<linearGradient id="路径_6_" gradientUnits="userSpaceOnUse" x1="-108.9448" y1="517.0674" x2="-109.5898" y2="515.4029" gradientTransform="matrix(59.2575 0 0 -64.9717 6795.8286 33656.6523)">
					<stop  offset="0" style="stop-color:#D2D2D2"/>
					<stop  offset="1" style="stop-color:#D2D2D2;stop-opacity:0"/>
				</linearGradient>
				<path id="路径_1_" class="st1" d="M273.2,180.4c-3.5-8-3.4-20.8,4.5-25.9c1.1,0.6,1.7,1.9,1.5,3.1c0,0-4.2,25.1,6.2,7.9
					c4.9-8.1,8.6-16.8,14.8-24.1c11.3-13.3,26.5-6.1,17,11.3c-1.2,2.3-13.4,19.2-7.9,21c0.7,0.2,1.5,0.1,2.2-0.1
					c4.9-1.5,9.9-5.7,14.5-3.6c4.1,1.9,4.7,7.5,3.9,11.9c-1.8,9-10.5,19-22.1,17.5C296,197.8,277.8,190.9,273.2,180.4L273.2,180.4z"
					/>
				
					<linearGradient id="路径_7_" gradientUnits="userSpaceOnUse" x1="-111.1977" y1="516.9106" x2="-111.1977" y2="513.699" gradientTransform="matrix(370.5185 0 0 -51.8519 41386.0742 26835.6035)">
					<stop  offset="0" style="stop-color:#D2D2D2"/>
					<stop  offset="1" style="stop-color:#D2D2D2;stop-opacity:0"/>
				</linearGradient>
				<path id="路径_2_" class="st2" d="M370.5,199.4c-46.6-31.9-112.3-51.9-185.3-51.9S46.6,167.4,0,199.4H370.5z"/>
				
					<linearGradient id="形状结合_1_" gradientUnits="userSpaceOnUse" x1="-107.8943" y1="516.1282" x2="-108.5068" y2="514.103" gradientTransform="matrix(35.7734 0 0 -55.8532 4153.895 28875.4102)">
					<stop  offset="0" style="stop-color:#D2D2D2"/>
					<stop  offset="1" style="stop-color:#D2D2D2;stop-opacity:0"/>
				</linearGradient>
				<path id="形状结合" class="st3" d="M293.5,103.1c-3,3.7-4.8,9-3.1,13.6c1.2,3.2,4.9,3.3,4.6,7.8c-0.3,2.2-1,4.4-2.2,6.3
					c-2.1,3.6-4.6,7-7.6,10c2.5,1.9,3.7,5,3.3,8.1c-0.5,3.1-1.9,5.9-4.2,8.1c-0.7,0.8-1.5,1.4-2.5,1.8c-0.9,0.2-1.9,0.2-2.8,0
					c-4.6-0.8-9.1-2.2-13.2-4.2c-2.6-1.2-5.3-3-6.2-5.7c-1-3.1,0.6-4.1,2.4-5.1l0.5-0.3c0.9-0.5,1.8-1.1,2.3-1.9
					c1.3-2.1,1.3-5,1.8-7.3c0.7-3.5-0.3-9.9,4-11.2c1.7-0.5,3.5-0.4,5.2-1c3.7-1.2,5.2-4.6,6.7-8.1l0.3-0.6c0.8-2,1.7-4,3-5.5
					C287.6,105.6,292.2,104.6,293.5,103.1z M282.8,123.8c0,0-13.3,15.5-12.9,29.8h4.3C274.2,153.6,275.8,136.3,282.8,123.8z"/>
				
					<linearGradient id="路径_8_" gradientUnits="userSpaceOnUse" x1="-108.0893" y1="509.1232" x2="-108.0893" y2="505.8221" gradientTransform="matrix(32.8382 0 0 -22.8182 3642.7822 11576.9121)">
					<stop  offset="0" style="stop-color:#D2D2D2"/>
					<stop  offset="1" style="stop-color:#D2D2D2;stop-opacity:0"/>
				</linearGradient>
				<path id="路径_3_" class="st4" d="M104.1,22L104.1,22c0.1-4.8-3.3-8.9-8.1-9.7s-9.3,1.9-10.9,6.4c-3-0.1-5.7,1.5-7.2,4.1
					c-1.5,2.6-1.4,5.8,0.1,8.3c1.6,2.5,4.4,4,7.3,3.9h17.9c3.4,0,6.2-2.7,6.4-6.1C109.9,25.5,107.5,22.5,104.1,22L104.1,22z"/>
				
					<linearGradient id="路径_9_" gradientUnits="userSpaceOnUse" x1="-108.7449" y1="511.2769" x2="-108.7449" y2="508.5849" gradientTransform="matrix(40.6517 0 0 -28.3949 4585.4575 14469.6025)">
					<stop  offset="0" style="stop-color:#D2D2D2"/>
					<stop  offset="1" style="stop-color:#D2D2D2;stop-opacity:0"/>
				</linearGradient>
				<path id="路径_4_" class="st5" d="M178.1,12.2L178.1,12.2c0-6-4.3-11-10.1-12c-5.8-1-11.5,2.3-13.5,7.9
					c-5.6,0.1-10.1,4.7-10,10.3s4.7,10.1,10.3,10H177c4.3,0,7.8-3.3,8.1-7.6C185.4,16.5,182.3,12.8,178.1,12.2L178.1,12.2z"/>
			</g>
			<g id="编组-9" transform="translate(129.000000, 59.000000)">
				
					<linearGradient id="路径-87_1_" gradientUnits="userSpaceOnUse" x1="-238.76" y1="458.8131" x2="-238.7392" y2="458.3759" gradientTransform="matrix(63.9516 0 0 -113 15366.3877 51879.543)">
					<stop  offset="0" style="stop-color:#E4E4E4"/>
					<stop  offset="1" style="stop-color:#E5E5E5"/>
				</linearGradient>
				<polygon id="路径-87" class="st6" points="96,7 130,17.1 108.5,120 66,104.1 82,83.5 74.3,41 				"/>
				
					<linearGradient id="路径-87备份_1_" gradientUnits="userSpaceOnUse" x1="-238.76" y1="458.8131" x2="-238.7392" y2="458.3759" gradientTransform="matrix(63.9516 0 0 -113 15363.2412 51878.543)">
					<stop  offset="0" style="stop-color:#EFEFEF"/>
					<stop  offset="1" style="stop-color:#F9F9F9"/>
				</linearGradient>
				<polygon id="路径-87备份" class="st7" points="92.9,6 126.9,16.1 105.3,119 62.9,103.1 78.9,82.5 71.1,40 				"/>
				<ellipse id="椭圆形" class="st8" cx="99.6" cy="38" rx="10.5" ry="12"/>
				
					<linearGradient id="路径-15_1_" gradientUnits="userSpaceOnUse" x1="-238.8983" y1="458.5954" x2="-238.8701" y2="458.1582" gradientTransform="matrix(69.1935 0 0 -105 16566.7891 48178.4258)">
					<stop  offset="0" style="stop-color:#ECECEC"/>
					<stop  offset="1" style="stop-color:#E9E9E9"/>
				</linearGradient>
				<polygon id="路径-15" class="st9" points="3.1,1 72.3,1 57.9,37.3 72.3,78.4 61.7,106 3.1,106 				"/>
				
					<linearGradient id="路径-15备份_1_" gradientUnits="userSpaceOnUse" x1="-238.8813" y1="458.7556" x2="-238.8813" y2="457.8326" gradientTransform="matrix(69.1936 0 0 -105 16563.6465 48177.4258)">
					<stop  offset="0" style="stop-color:#F4F4F4"/>
					<stop  offset="1" style="stop-color:#F6F6F6"/>
				</linearGradient>
				<polygon id="路径-15备份" class="st10" points="0,0 69.2,0 54.7,36.3 69.2,77.4 58.5,105 0,105 				"/>
				
					<linearGradient id="路径-65_1_" gradientUnits="userSpaceOnUse" x1="-238.929" y1="457.0987" x2="-238.929" y2="456.1843" gradientTransform="matrix(71.2903 0 0 -67 17068.9668 30663.6133)">
					<stop  offset="0" style="stop-color:#E2E2E2"/>
					<stop  offset="1" style="stop-color:#ECEBEB"/>
				</linearGradient>
				<polygon id="路径-65" class="st11" points="0,88.9 41.3,38 71.3,77.4 60.7,104.6 0,105 				"/>
				
					<linearGradient id="路径-88_1_" gradientUnits="userSpaceOnUse" x1="-238.0156" y1="456.0534" x2="-238.0156" y2="455.0534" gradientTransform="matrix(45.0806 0 0 -55 10814.291 25146.9375)">
					<stop  offset="0" style="stop-color:#DCDBDB"/>
					<stop  offset="1" style="stop-color:#F3F3F3"/>
				</linearGradient>
				<polygon id="路径-88" class="st12" points="106.9,109.2 82.9,64 75.1,67.9 77.9,83.4 61.9,103.5 104.6,119 				"/>
			</g>
			<g id="警告" transform="translate(206.000000, 119.000000)">
				
					<linearGradient id="形状_2_" gradientUnits="userSpaceOnUse" x1="-315.7769" y1="396.0534" x2="-315.7769" y2="395.0534" gradientTransform="matrix(65 0 0 -55 20558 21782.9375)">
					<stop  offset="0" style="stop-color:#DFF6F4"/>
					<stop  offset="1" style="stop-color:#1FE1AC"/>
				</linearGradient>
				<path id="形状" class="st13" d="M6.5,55c-2.3,0-4.6-0.1-5.9-2.4c-1.2-2.3-0.3-4.3,0.9-6.3C10,32.1,18.5,17.9,27.1,3.8
					c3-5,8.7-5,11.7,0c8.3,14,16.6,28,24.8,42.1c0.9,1.5,1.3,3.5,1.4,5.2c0.1,2.3-1.6,3.8-3.9,3.9 M36.6,23.6c0-2.7,0-5.4,0-8.1
					c0-2.3-1.9-4.1-4.2-4.1c-2.2,0-3.9,1.8-4,4.1c0,5.3,0,10.6,0,15.9c0,2.4,1.8,4.2,4.1,4.2c2.3,0,4-1.7,4.1-4.2
					C36.7,28.8,36.6,26.2,36.6,23.6z M36.5,43.2c0-2.3-1.7-4-4-4c-2.3,0-4.1,1.7-4,4c0,2.2,1.8,4,4,4C34.7,47.3,36.5,45.5,36.5,43.2
					z"/>
			</g>
			<g id="警告_1_" transform="translate(234.000000, 130.000000)">
				<path id="形状_1_" class="st14" d="M8.6,12.6c0-2.7,0-5.4,0-8.1c0-2.3-1.9-4.1-4.2-4.1c-2.2,0-3.9,1.8-4,4.1
					c0,5.3,0,10.6,0,15.9c0,2.4,1.8,4.2,4.1,4.2c2.3,0,4-1.7,4.1-4.2C8.7,17.8,8.6,15.2,8.6,12.6z M8.5,32.2c0-2.3-1.7-4-4-4
					c-2.3,0-4.1,1.7-4,4c0,2.2,1.8,4,4,4C6.7,36.3,8.5,34.5,8.5,32.2z"/>
			</g>
		</g>
	</g>
</g>
</svg>
