<?xml version="1.0" encoding="utf-8"?>
<!-- Generator: Adobe Illustrator 24.0.1, SVG Export Plug-In . SVG Version: 6.00 Build 0)  -->
<svg version="1.1" id="图层_1" xmlns="http://www.w3.org/2000/svg" xmlns:xlink="http://www.w3.org/1999/xlink" x="0px" y="0px"
	 viewBox="0 0 371 200" style="enable-background:new 0 0 371 200;" xml:space="preserve">
<style type="text/css">
	.st0{fill:url(#路径_10_);}
	.st1{fill:url(#路径_11_);}
	.st2{fill:url(#路径_12_);}
	.st3{fill:url(#形状结合_1_);}
	.st4{fill:url(#路径_13_);}
	.st5{fill:url(#路径_14_);}
	.st6{fill:url(#矩形_5_);}
	.st7{fill:url(#矩形_6_);}
	.st8{opacity:0.6;fill:#FFFFFF;enable-background:new    ;}
	.st9{opacity:0.44;fill:#CCCCCC;enable-background:new    ;}
	.st10{fill:#D0D0D0;}
	.st11{fill:#FFFFFF;}
	.st12{fill:url(#椭圆形_3_);}
	.st13{fill:none;stroke:url(#椭圆形_4_);stroke-width:7;}
	.st14{opacity:0.4003;fill:url(#椭圆形_5_);enable-background:new    ;}
	.st15{fill:url(#矩形_7_);}
	.st16{fill:url(#矩形_8_);}
</style>
<title>没有数据_1@1x</title>
<g id="页面-1">
	<g id="空状态图标备份" transform="translate(-954.000000, -197.000000)">
		<g id="没有数据_1" transform="translate(954.000000, 197.000000)">
			
				<linearGradient id="路径_10_" gradientUnits="userSpaceOnUse" x1="-110.7625" y1="517.8237" x2="-109.6036" y2="514.9641" gradientTransform="matrix(63.9295 0 0 -65.4068 7106.8784 33845.8047)">
				<stop  offset="0" style="stop-color:#D2D2D2"/>
				<stop  offset="1" style="stop-color:#D2D2D2;stop-opacity:0"/>
			</linearGradient>
			<path id="路径" class="st0" d="M73.3,159.6c-7.9-3.6-16.5-13.2-14.1-22.2c1.2-0.3,2.5,0.2,3.2,1.2c0,0,13.7,21.4,9.9,1.7
				c-1.8-9.3-4.9-18.2-5.2-27.8c-0.4-17.4,15.6-22.2,20.2-3c0.6,2.5,2.9,23.2,8.2,20.9c0.7-0.4,1.2-0.9,1.6-1.6
				c2.7-4.4,3.5-10.9,8.4-12.3c4.3-1.4,8.6,2.4,10.9,6.2c4.7,7.9,11,27.4,1.4,34C108,163.2,83.7,164.3,73.3,159.6L73.3,159.6z"/>
			
				<linearGradient id="路径_11_" gradientUnits="userSpaceOnUse" x1="-108.9448" y1="517.0674" x2="-109.5898" y2="515.4029" gradientTransform="matrix(59.2575 0 0 -64.9717 6795.8286 33656.6523)">
				<stop  offset="0" style="stop-color:#D2D2D2"/>
				<stop  offset="1" style="stop-color:#D2D2D2;stop-opacity:0"/>
			</linearGradient>
			<path id="路径_1_" class="st1" d="M273.2,180.4c-3.5-8-3.4-20.8,4.5-25.9c1.1,0.6,1.7,1.9,1.5,3.1c0,0-4.2,25.1,6.2,7.9
				c4.9-8.1,8.6-16.8,14.8-24.1c11.3-13.3,26.5-6.1,17,11.3c-1.2,2.3-13.4,19.2-7.9,21c0.7,0.2,1.5,0.1,2.2-0.1
				c4.9-1.5,9.9-5.7,14.5-3.6c4.1,1.9,4.7,7.5,3.9,11.9c-1.8,9-10.5,19-22.1,17.5C296,197.8,277.8,190.9,273.2,180.4L273.2,180.4z"
				/>
			
				<linearGradient id="路径_12_" gradientUnits="userSpaceOnUse" x1="-111.1977" y1="516.9106" x2="-111.1977" y2="513.699" gradientTransform="matrix(370.5185 0 0 -51.8519 41386.0742 26835.6055)">
				<stop  offset="0" style="stop-color:#D2D2D2"/>
				<stop  offset="1" style="stop-color:#D2D2D2;stop-opacity:0"/>
			</linearGradient>
			<path id="路径_2_" class="st2" d="M370.5,199.4c-46.6-31.9-112.3-51.9-185.3-51.9S46.6,167.4,0,199.4H370.5z"/>
			
				<linearGradient id="形状结合_1_" gradientUnits="userSpaceOnUse" x1="-107.8943" y1="516.1282" x2="-108.5068" y2="514.103" gradientTransform="matrix(35.7734 0 0 -55.8532 4153.895 28875.4082)">
				<stop  offset="0" style="stop-color:#D2D2D2"/>
				<stop  offset="1" style="stop-color:#D2D2D2;stop-opacity:0"/>
			</linearGradient>
			<path id="形状结合" class="st3" d="M293.5,103.1c-3,3.7-4.8,9-3.1,13.6c1.2,3.2,4.9,3.3,4.6,7.8c-0.3,2.2-1,4.4-2.2,6.3
				c-2.1,3.6-4.6,7-7.6,10c2.5,1.9,3.7,5,3.3,8.1c-0.5,3.1-1.9,5.9-4.2,8.1c-0.7,0.8-1.5,1.4-2.5,1.8c-0.9,0.2-1.9,0.2-2.8,0
				c-4.6-0.8-9.1-2.2-13.2-4.2c-2.6-1.2-5.3-3-6.2-5.7c-1-3.1,0.6-4.1,2.4-5.1l0.5-0.3c0.9-0.5,1.8-1.1,2.3-1.9
				c1.3-2.1,1.3-5,1.8-7.3c0.7-3.5-0.3-9.9,4-11.2c1.7-0.5,3.5-0.4,5.2-1c3.7-1.2,5.2-4.6,6.7-8.1l0.3-0.6c0.8-2,1.7-4,3-5.5
				C287.6,105.6,292.2,104.6,293.5,103.1z M282.8,123.8c0,0-13.3,15.5-12.9,29.8h4.3C274.2,153.6,275.8,136.3,282.8,123.8z"/>
			
				<linearGradient id="路径_13_" gradientUnits="userSpaceOnUse" x1="-108.0893" y1="509.1232" x2="-108.0893" y2="505.8221" gradientTransform="matrix(32.8382 0 0 -22.8182 3642.7822 11576.9131)">
				<stop  offset="0" style="stop-color:#D2D2D2"/>
				<stop  offset="1" style="stop-color:#D2D2D2;stop-opacity:0"/>
			</linearGradient>
			<path id="路径_3_" class="st4" d="M104.1,22L104.1,22c0.1-4.8-3.3-8.9-8.1-9.7c-4.7-0.8-9.3,1.9-10.9,6.4
				c-3-0.1-5.7,1.5-7.2,4.1c-1.5,2.6-1.4,5.8,0.1,8.3c1.6,2.5,4.4,4,7.3,3.9h17.9c3.4,0,6.2-2.7,6.4-6.1
				C109.9,25.5,107.5,22.5,104.1,22L104.1,22z"/>
			
				<linearGradient id="路径_14_" gradientUnits="userSpaceOnUse" x1="-108.7449" y1="511.2769" x2="-108.7449" y2="508.5849" gradientTransform="matrix(40.6517 0 0 -28.3949 4585.4575 14469.6035)">
				<stop  offset="0" style="stop-color:#D2D2D2"/>
				<stop  offset="1" style="stop-color:#D2D2D2;stop-opacity:0"/>
			</linearGradient>
			<path id="路径_4_" class="st5" d="M178.1,12.2L178.1,12.2c0-6-4.3-11-10.1-12c-5.8-1-11.5,2.3-13.5,7.9
				c-5.6,0.1-10.1,4.7-10,10.3s4.7,10.1,10.3,10H177c4.3,0,7.8-3.3,8.1-7.6C185.4,16.5,182.3,12.8,178.1,12.2L178.1,12.2z"/>
			
				<linearGradient id="矩形_5_" gradientUnits="userSpaceOnUse" x1="-110.5788" y1="511.1343" x2="-110.283" y2="511.0307" gradientTransform="matrix(105.0019 0 0 -34.4321 11750.209 17753.3281)">
				<stop  offset="0" style="stop-color:#EBEBEB;stop-opacity:0"/>
				<stop  offset="1" style="stop-color:#A0A0A0"/>
			</linearGradient>
			<polygon id="矩形" class="st6" points="102,139 154.3,139 207,173.4 155.5,172.4 			"/>
			<g id="编组-4" transform="translate(145.469136, 27.057306)">
				
					<linearGradient id="矩形_6_" gradientUnits="userSpaceOnUse" x1="-256.2574" y1="491.5996" x2="-255.4786" y2="490.209" gradientTransform="matrix(99.679 0 0 -130.0494 25552.2695 63918.2617)">
					<stop  offset="0" style="stop-color:#F8F8F8"/>
					<stop  offset="1" style="stop-color:#D2D2D2"/>
				</linearGradient>
				<path id="矩形_1_" class="st7" d="M16.3,16.7h67.2c9,0,16.3,7.3,16.3,16.3v97.5c0,9-7.3,16.3-16.3,16.3H16.3
					c-9,0-16.3-7.3-16.3-16.3V32.9C0,23.9,7.3,16.7,16.3,16.7z"/>
				<path id="矩形_2_" class="st8" d="M16.8,24.1h66.1c6,0,10.8,4.8,10.8,10.8v93.6c0,6-4.8,10.8-10.8,10.8H16.8
					c-6,0-10.8-4.8-10.8-10.8V34.9C6,28.9,10.8,24.1,16.8,24.1z"/>
				<path id="路径_5_" class="st9" d="M71.4,16.4H59.8c2.1-4.1,1.5-9.2-1.6-12.7c-3.1-3.5-8-4.7-12.4-3.1s-7.3,5.8-7.3,10.5
					c0,1.8,0.4,3.6,1.2,5.2H28.2c-1.3,0-2.3,1-2.3,2.3v7.6c0,1.3,1,2.3,2.3,2.3h43.1c1.3,0,2.3-1,2.3-2.3v-7.5
					C73.7,17.5,72.7,16.5,71.4,16.4z"/>
				<path id="路径_6_" class="st10" d="M31.6,60.8H18.4c-1.4,0-2.5-1.1-2.5-2.5s1.1-2.5,2.5-2.5h13.2c1.4,0,2.5,1.1,2.5,2.5
					S33,60.8,31.6,60.8L31.6,60.8z"/>
				<path id="路径_7_" class="st11" d="M52.5,74H17.6c-1.4,0-2.5-1.1-2.5-2.5c0-1.4,1.1-2.5,2.5-2.5h34.9c1.4,0,2.5,1.1,2.5,2.5
					C54.9,72.9,53.8,74,52.5,74L52.5,74z"/>
				<path id="路径_8_" class="st11" d="M52.5,87.8H17.6c-1.4,0-2.5-1.1-2.5-2.5c0-1.4,1.1-2.5,2.5-2.5h34.9c1.4,0,2.5,1.1,2.5,2.5
					C54.9,86.7,53.8,87.8,52.5,87.8L52.5,87.8z"/>
				
					<linearGradient id="椭圆形_3_" gradientUnits="userSpaceOnUse" x1="-248.9106" y1="468.8032" x2="-247.9106" y2="468.8032" gradientTransform="matrix(13.0864 0 0 -13.0864 3300.6455 6145.9849)">
					<stop  offset="0" style="stop-color:#FFFFFF"/>
					<stop  offset="1" style="stop-color:#FFFFFF"/>
				</linearGradient>
				<circle id="椭圆形" class="st12" cx="49.8" cy="11" r="6.5"/>
			</g>
			<g id="编组-3" transform="translate(192.950617, 111.382716)">
				
					<linearGradient id="椭圆形_4_" gradientUnits="userSpaceOnUse" x1="-302.867" y1="402.9064" x2="-301.6998" y2="402.9064" gradientTransform="matrix(51.679 0 0 -52.6173 15647.5469 21226.1484)">
					<stop  offset="0" style="stop-color:#ABECE6"/>
					<stop  offset="1" style="stop-color:#1FE1AC"/>
				</linearGradient>
				<ellipse id="椭圆形_1_" class="st13" cx="25.8" cy="26.3" rx="25.8" ry="26.3"/>
				
					<linearGradient id="椭圆形_5_" gradientUnits="userSpaceOnUse" x1="-302.5557" y1="402.143" x2="-301.5557" y2="402.143" gradientTransform="matrix(46.7654 0 0 -46.7654 14151.6035 18832.6992)">
					<stop  offset="0" style="stop-color:#DFF6F4"/>
					<stop  offset="1" style="stop-color:#1FE1AC"/>
				</linearGradient>
				<circle id="椭圆形_2_" class="st14" cx="25.8" cy="26.3" r="23.4"/>
				<path id="路径_9_" class="st11" d="M12.3,29.4L12.3,29.4c-2.6,0-4.7-2.1-4.7-4.7c0-0.8,0.1-7.7,5.1-12.7c3-3,7.2-4.6,12.2-4.6
					c2.6,0,4.7,2.2,4.7,4.8c0,2.6-2.2,4.7-4.8,4.7c-4.3,0-5.8,1.9-6.6,3.4c-0.7,1.4-1.1,2.9-1.2,4.4C17,27.3,14.9,29.4,12.3,29.4z"
					/>
				
					<linearGradient id="矩形_7_" gradientUnits="userSpaceOnUse" x1="-335.3055" y1="378.3742" x2="-335.2937" y2="376.4355" gradientTransform="matrix(3.4949 -3.7295 -6.7653 -6.3398 3767.0696 1186.7822)">
					<stop  offset="0" style="stop-color:#DFF6F4"/>
					<stop  offset="1" style="stop-color:#1FE1AC"/>
				</linearGradient>
				<polygon id="矩形_4_" class="st15" points="42.8,48.9 46.3,45.2 53.1,51.5 49.6,55.3 				"/>
				
					<linearGradient id="矩形_8_" gradientUnits="userSpaceOnUse" x1="-317.3889" y1="397.8616" x2="-317.4037" y2="396.7639" gradientTransform="matrix(8.3236 -8.8823 -18.2331 -17.0861 9938.4082 4023.5054)">
					<stop  offset="0" style="stop-color:#DFF6F4"/>
					<stop  offset="1" style="stop-color:#1FE1AC"/>
				</linearGradient>
				<polygon id="矩形_3_" class="st16" points="45.5,56.3 53.9,47.4 72.1,64.5 63.8,73.4 				"/>
			</g>
		</g>
	</g>
</g>
</svg>
