<?xml version="1.0" encoding="utf-8"?>
<!-- Generator: Adobe Illustrator 24.0.1, SVG Export Plug-In . SVG Version: 6.00 Build 0)  -->
<svg version="1.1" id="图层_1" xmlns="http://www.w3.org/2000/svg" xmlns:xlink="http://www.w3.org/1999/xlink" x="0px" y="0px"
	 viewBox="0 0 128 128" style="enable-background:new 0 0 128 128;" xml:space="preserve">
<style type="text/css">
	.st0{fill:#30C77E;}
</style>
<path class="st0" d="M36,38.7v-8c0-11,9-20,20-20h36v28c0,11.2-4.1,19.7-12.9,23.4c-0.7,0.4,0.3,3.9,2.6,5.9
	c2.3,2,13.1,5.2,17.2,8.1c7.1,5.1,13,12,13,18.7v10.7c0,6.6-5.4,12-12,12H28c-6.6,0-12-5.4-12-12V94.7c0-7.5,7.4-15.2,15.5-20.3
	c3.3-2.1,11.4-4.2,14.8-6.4c3.3-2.3,3.3-5.4,2.6-5.9C40.1,58.3,36,49.9,36,38.7L36,38.7z M84,18.7H56c-6.6,0-12,5.4-12,12v8
	c0,8.4,2.7,13.8,8.2,16.1c4.8,2.8,6.1,7.4,4,13.7c-1.1,3.4-4,5.9-7.4,7.1l-4.8,1.6C36.3,79.7,24,88.9,24,94.7v10.7c0,2.2,1.8,4,4,4
	h72c2.2,0,4-1.8,4-4V94.7c0-5.8-12.3-15-19.9-17.5l-4.8-1.6c-3.4-1.1-6.5-3.5-7.4-7.1c-1.7-6.8-0.3-11.4,4-13.7
	c5.5-2.2,8.2-7.7,8.2-16.1C84,38.7,84,18.7,84,18.7z"/>
</svg>
