<?xml version="1.0" encoding="utf-8"?>
<!-- Generator: Adobe Illustrator 24.0.1, SVG Export Plug-In . SVG Version: 6.00 Build 0)  -->
<svg version="1.1" id="图层_1" xmlns="http://www.w3.org/2000/svg" xmlns:xlink="http://www.w3.org/1999/xlink" x="0px" y="0px"
	 viewBox="0 0 128 128" style="enable-background:new 0 0 128 128;" xml:space="preserve">
<style type="text/css">
	.st0{fill:#30C77E;}
</style>
<path class="st0" d="M103.6,123.9H21.1c-11.6,0-20.6-9.1-20.6-20.6V53.7C0.4,42.1,9.5,33,21.1,33h82.6c11.6,0,20.6,9.1,20.6,20.6
	v49.5C124.3,114.8,115.2,123.9,103.6,123.9z M21.1,41.3c-7,0-12.4,5.4-12.4,12.4v49.5c0,7,5.4,12.4,12.4,12.4h82.6
	c7,0,12.4-5.4,12.4-12.4V53.7c0-7-5.4-12.4-12.4-12.4C103.6,41.3,21.1,41.3,21.1,41.3z"/>
<path class="st0" d="M62.3,88.8c-1.2,0-2.1-0.8-2.1-2.1V66.1c0-1.2,0.8-2.1,2.1-2.1s2.1,0.8,2.1,2.1v20.6
	C64.4,87.9,63.6,88.8,62.3,88.8z"/>
<path class="st0" d="M62.3,90.8c-2.5,0-4.1-1.7-4.1-4.1V66.1c0-2.5,1.7-4.1,4.1-4.1c2.5,0,4.1,1.7,4.1,4.1v20.6
	C66.5,89.2,64.8,90.8,62.3,90.8z M62.3,86.7v2.1V86.7z"/>
<path class="st0" d="M95.4,41.3H29.3V33c0-18.2,14.9-33,33-33s33,14.9,33,33V41.3z M37.6,33h49.5C87.1,19.4,76,8.3,62.3,8.3
	S37.6,19.4,37.6,33z"/>
</svg>
